<svg width="17" height="16" viewBox="0 0 17 16" fill="none" xmlns="http://www.w3.org/2000/svg">
<path d="M4.14062 16V5.48828H0.871094V16H4.14062ZM2.48828 4.08203C3.54297 4.08203 4.38672 3.20312 4.38672 2.14844C4.38672 1.12891 3.54297 0.285156 2.48828 0.285156C1.46875 0.285156 0.625 1.12891 0.625 2.14844C0.625 3.20312 1.46875 4.08203 2.48828 4.08203ZM16.3398 16H16.375V10.2344C16.375 7.42188 15.7422 5.24219 12.4375 5.24219C10.8555 5.24219 9.80078 6.12109 9.34375 6.92969H9.30859V5.48828H6.17969V16H9.44922V10.7969C9.44922 9.42578 9.69531 8.125 11.3828 8.125C13.0703 8.125 13.1055 9.67188 13.1055 10.9023V16H16.3398Z" fill="#292F36"/>
</svg>
